<svg width="178" height="151" viewBox="0 0 178 151" fill="none" xmlns="http://www.w3.org/2000/svg">
<circle cx="54" cy="75" r="15" fill="#7A7D82"/>
<path d="M74 45C74 36.7157 80.7157 30 89 30V30C97.2843 30 104 36.7157 104 45V90H74V45Z" fill="#B6B7BC"/>
<rect x="109" width="30" height="90" fill="#FFFEFE"/>
<path d="M14.5739 129H2.47692V96.2727H14.5579C17.8924 96.2727 20.7635 96.9279 23.1712 98.2383C25.5895 99.538 27.4538 101.413 28.7642 103.863C30.0746 106.303 30.7298 109.222 30.7298 112.62C30.7298 116.029 30.0746 118.959 28.7642 121.409C27.4645 123.86 25.6055 125.74 23.1871 127.05C20.7688 128.35 17.8977 129 14.5739 129ZM10.3871 122.256H14.2702C16.1026 122.256 17.6527 121.947 18.9205 121.33C20.1989 120.701 21.163 119.684 21.8129 118.277C22.4734 116.86 22.8036 114.975 22.8036 112.62C22.8036 110.266 22.4734 108.391 21.8129 106.995C21.1523 105.589 20.1776 104.577 18.8885 103.959C17.6101 103.331 16.0334 103.016 14.1584 103.016H10.3871V122.256ZM40.9436 129H32.4422L43.4844 96.2727H54.0153L65.0576 129H56.5562L48.8697 104.518H48.6141L40.9436 129ZM39.809 116.12H57.5789V122.129H39.809V116.12ZM63.8736 102.697V96.2727H91.5352V102.697H81.6116V129H73.8133V102.697H63.8736ZM98.8407 129H90.3393L101.382 96.2727H111.912L122.955 129H114.453L106.767 104.518H106.511L98.8407 129ZM97.7061 116.12H115.476V122.129H97.7061V116.12ZM137.046 129V96.2727H150.693C153.144 96.2727 155.194 96.619 156.846 97.3114C158.508 98.0039 159.754 98.9734 160.585 100.22C161.427 101.466 161.847 102.91 161.847 104.55C161.847 105.797 161.586 106.91 161.064 107.89C160.542 108.86 159.823 109.664 158.907 110.303C157.991 110.942 156.931 111.39 155.727 111.646V111.965C157.048 112.029 158.268 112.386 159.386 113.036C160.516 113.686 161.421 114.591 162.103 115.752C162.785 116.903 163.126 118.267 163.126 119.843C163.126 121.601 162.678 123.173 161.783 124.558C160.889 125.932 159.594 127.018 157.9 127.817C156.206 128.606 154.15 129 151.732 129H137.046ZM144.956 122.624H149.846C151.562 122.624 152.824 122.299 153.634 121.649C154.454 120.999 154.864 120.094 154.864 118.933C154.864 118.091 154.667 117.366 154.273 116.759C153.879 116.141 153.319 115.667 152.595 115.337C151.87 114.996 151.002 114.826 149.99 114.826H144.956V122.624ZM144.956 109.728H149.335C150.198 109.728 150.965 109.584 151.636 109.297C152.307 109.009 152.829 108.593 153.202 108.05C153.586 107.507 153.777 106.852 153.777 106.085C153.777 104.987 153.389 104.124 152.611 103.496C151.833 102.867 150.784 102.553 149.463 102.553H144.956V109.728ZM175.289 96.2727V129H167.379V96.2727H175.289Z" fill="white"/>
<path d="M34.7784 139.5C34.6612 139.141 34.5067 138.82 34.315 138.536C34.1268 138.248 33.9013 138.003 33.6385 137.801C33.3793 137.598 33.0845 137.444 32.7543 137.337C32.424 137.231 32.0618 137.178 31.6676 137.178C31.0213 137.178 30.4336 137.344 29.9045 137.678C29.3754 138.012 28.9545 138.504 28.642 139.154C28.3295 139.804 28.1733 140.601 28.1733 141.545C28.1733 142.49 28.3313 143.287 28.6474 143.937C28.9634 144.587 29.3913 145.079 29.9311 145.413C30.4709 145.746 31.0781 145.913 31.7528 145.913C32.3778 145.913 32.9283 145.78 33.4041 145.514C33.8835 145.244 34.2564 144.864 34.5227 144.374C34.7926 143.88 34.9276 143.3 34.9276 142.632L35.3324 142.717H32.0511V141.545H36.206V142.717C36.206 143.616 36.0142 144.397 35.6307 145.061C35.2507 145.725 34.7251 146.24 34.054 146.606C33.3864 146.968 32.6193 147.149 31.7528 147.149C30.7869 147.149 29.9382 146.922 29.2067 146.467C28.4787 146.013 27.9105 145.366 27.5021 144.528C27.0973 143.69 26.8949 142.696 26.8949 141.545C26.8949 140.683 27.0103 139.907 27.2411 139.218C27.4755 138.525 27.8058 137.936 28.2319 137.449C28.658 136.963 29.1623 136.59 29.7447 136.331C30.3271 136.071 30.968 135.942 31.6676 135.942C32.2429 135.942 32.7791 136.029 33.2763 136.203C33.777 136.373 34.2227 136.616 34.6133 136.933C35.0075 137.245 35.3359 137.62 35.5987 138.056C35.8615 138.49 36.0426 138.971 36.142 139.5H34.7784ZM41.7284 147.17C40.9401 147.17 40.26 146.996 39.6883 146.648C39.1201 146.297 38.6816 145.807 38.3726 145.178C38.0672 144.546 37.9145 143.811 37.9145 142.973C37.9145 142.135 38.0672 141.396 38.3726 140.757C38.6816 140.114 39.1112 139.614 39.6617 139.255C40.2156 138.893 40.8619 138.712 41.6006 138.712C42.0267 138.712 42.4475 138.783 42.863 138.925C43.2785 139.067 43.6567 139.298 43.9976 139.617C44.3385 139.933 44.6102 140.352 44.8126 140.874C45.015 141.396 45.1162 142.039 45.1162 142.803V143.335H38.8094V142.249H43.8378C43.8378 141.787 43.7455 141.375 43.5608 141.013C43.3797 140.651 43.1205 140.365 42.7831 140.155C42.4493 139.946 42.0551 139.841 41.6006 139.841C41.0999 139.841 40.6666 139.965 40.3009 140.214C39.9387 140.459 39.6599 140.778 39.4646 141.173C39.2693 141.567 39.1716 141.989 39.1716 142.44V143.165C39.1716 143.783 39.2781 144.306 39.4912 144.736C39.7078 145.162 40.0079 145.487 40.3914 145.711C40.7749 145.931 41.2206 146.041 41.7284 146.041C42.0587 146.041 42.357 145.995 42.6233 145.903C42.8932 145.807 43.1258 145.665 43.3211 145.477C43.5164 145.285 43.6673 145.047 43.7739 144.763L44.9884 145.104C44.8605 145.516 44.6457 145.878 44.3438 146.19C44.042 146.499 43.6691 146.741 43.2252 146.915C42.7813 147.085 42.2824 147.17 41.7284 147.17ZM52.824 140.651L51.6947 140.97C51.6237 140.782 51.5189 140.599 51.3804 140.422C51.2455 140.24 51.0608 140.091 50.8264 139.974C50.5921 139.857 50.292 139.798 49.9262 139.798C49.4255 139.798 49.0083 139.914 48.6744 140.145C48.3442 140.372 48.1791 140.661 48.1791 141.013C48.1791 141.325 48.2927 141.572 48.52 141.753C48.7472 141.934 49.1024 142.085 49.5853 142.206L50.7998 142.504C51.5313 142.682 52.0764 142.953 52.4351 143.319C52.7938 143.681 52.9731 144.148 52.9731 144.72C52.9731 145.189 52.8382 145.608 52.5683 145.977C52.3019 146.347 51.9291 146.638 51.4497 146.851C50.9703 147.064 50.4127 147.17 49.7771 147.17C48.9426 147.17 48.2519 146.989 47.705 146.627C47.1581 146.265 46.8119 145.736 46.6663 145.04L47.8595 144.741C47.9731 145.182 48.1879 145.512 48.504 145.732C48.8236 145.952 49.2409 146.062 49.7558 146.062C50.3417 146.062 50.8069 145.938 51.1514 145.69C51.4994 145.437 51.6734 145.136 51.6734 144.784C51.6734 144.5 51.574 144.262 51.3751 144.07C51.1762 143.875 50.8708 143.729 50.4589 143.634L49.0953 143.314C48.346 143.136 47.7955 142.861 47.444 142.488C47.096 142.112 46.922 141.641 46.922 141.077C46.922 140.615 47.0516 140.207 47.3108 139.852C47.5736 139.496 47.9305 139.218 48.3815 139.015C48.836 138.813 49.3509 138.712 49.9262 138.712C50.7359 138.712 51.3715 138.889 51.8332 139.244C52.2984 139.599 52.6286 140.068 52.824 140.651ZM58.4237 138.818V139.884H54.1836V138.818H58.4237ZM55.4194 136.858H56.6765V144.656C56.6765 145.011 56.728 145.278 56.831 145.455C56.9375 145.629 57.0724 145.746 57.2358 145.807C57.4027 145.864 57.5785 145.892 57.7631 145.892C57.9016 145.892 58.0153 145.885 58.104 145.871C58.1928 145.853 58.2638 145.839 58.3171 145.828L58.5728 146.957C58.4876 146.989 58.3686 147.021 58.2159 147.053C58.0632 147.089 57.8697 147.107 57.6353 147.107C57.2802 147.107 56.9322 147.03 56.5913 146.877C56.2539 146.725 55.9734 146.492 55.7496 146.18C55.5295 145.867 55.4194 145.473 55.4194 144.997V136.858ZM62.7223 147.192C62.2038 147.192 61.7333 147.094 61.3107 146.899C60.8881 146.7 60.5526 146.414 60.304 146.041C60.0554 145.665 59.9311 145.21 59.9311 144.678C59.9311 144.209 60.0234 143.829 60.2081 143.538C60.3928 143.243 60.6396 143.012 60.9485 142.845C61.2575 142.678 61.5984 142.554 61.9712 142.472C62.3477 142.387 62.7259 142.32 63.1058 142.27C63.603 142.206 64.006 142.158 64.315 142.126C64.6275 142.091 64.8548 142.032 64.9968 141.95C65.1424 141.869 65.2152 141.727 65.2152 141.524V141.482C65.2152 140.956 65.0714 140.548 64.7837 140.256C64.4996 139.965 64.0682 139.82 63.4893 139.82C62.8892 139.82 62.4187 139.951 62.0778 140.214C61.7369 140.477 61.4972 140.757 61.3587 141.055L60.1655 140.629C60.3786 140.132 60.6626 139.745 61.0178 139.468C61.3764 139.187 61.767 138.992 62.1896 138.882C62.6158 138.768 63.0348 138.712 63.4467 138.712C63.7095 138.712 64.0114 138.744 64.3523 138.808C64.6967 138.868 65.0288 138.994 65.3484 139.186C65.6715 139.377 65.9396 139.667 66.1527 140.054C66.3658 140.441 66.4723 140.96 66.4723 141.609V147H65.2152V145.892H65.1513C65.0661 146.07 64.924 146.26 64.7251 146.462C64.5263 146.664 64.2617 146.837 63.9315 146.979C63.6012 147.121 63.1982 147.192 62.7223 147.192ZM62.9141 146.062C63.4112 146.062 63.8303 145.965 64.1712 145.77C64.5156 145.574 64.7749 145.322 64.9489 145.013C65.1264 144.704 65.2152 144.379 65.2152 144.038V142.888C65.1619 142.952 65.0447 143.01 64.8636 143.064C64.6861 143.113 64.4801 143.158 64.2457 143.197C64.0149 143.232 63.7894 143.264 63.5692 143.293C63.3526 143.317 63.1768 143.339 63.0419 143.357C62.7152 143.399 62.4098 143.468 62.1257 143.564C61.8452 143.657 61.6179 143.797 61.4439 143.985C61.2734 144.17 61.1882 144.422 61.1882 144.741C61.1882 145.178 61.3498 145.509 61.6729 145.732C61.9996 145.952 62.4134 146.062 62.9141 146.062ZM61.8913 137.838L60.9112 137.795C60.9112 137.252 61.0657 136.808 61.3746 136.464C61.6871 136.116 62.0724 135.942 62.5305 135.942C62.733 135.942 62.9123 135.977 63.0685 136.048C63.2248 136.116 63.3739 136.194 63.516 136.283C63.658 136.371 63.8036 136.451 63.9528 136.522C64.1055 136.59 64.2777 136.624 64.4695 136.624C64.6719 136.624 64.8423 136.545 64.9808 136.389C65.1229 136.229 65.1939 136.038 65.1939 135.814L66.1527 135.899C66.1527 136.453 65.9964 136.893 65.6839 137.22C65.375 137.547 64.9915 137.71 64.5334 137.71C64.2884 137.71 64.0859 137.676 63.9261 137.609C63.7663 137.538 63.6243 137.458 63.5 137.369C63.3757 137.281 63.2443 137.202 63.1058 137.135C62.9673 137.064 62.7969 137.028 62.5945 137.028C62.392 137.028 62.2234 137.108 62.0884 137.268C61.957 137.424 61.8913 137.614 61.8913 137.838ZM72.0906 147.17C71.352 147.17 70.7039 146.995 70.1464 146.643C69.5924 146.292 69.1592 145.8 68.8467 145.168C68.5377 144.536 68.3833 143.797 68.3833 142.952C68.3833 142.099 68.5377 141.355 68.8467 140.72C69.1592 140.084 69.5924 139.591 70.1464 139.239C70.7039 138.887 71.352 138.712 72.0906 138.712C72.8293 138.712 73.4756 138.887 74.0296 139.239C74.5871 139.591 75.0203 140.084 75.3293 140.72C75.6418 141.355 75.798 142.099 75.798 142.952C75.798 143.797 75.6418 144.536 75.3293 145.168C75.0203 145.8 74.5871 146.292 74.0296 146.643C73.4756 146.995 72.8293 147.17 72.0906 147.17ZM72.0906 146.041C72.6517 146.041 73.1134 145.897 73.4756 145.61C73.8378 145.322 74.1059 144.944 74.2799 144.475C74.4539 144.006 74.5409 143.499 74.5409 142.952C74.5409 142.405 74.4539 141.895 74.2799 141.423C74.1059 140.951 73.8378 140.569 73.4756 140.278C73.1134 139.987 72.6517 139.841 72.0906 139.841C71.5296 139.841 71.0679 139.987 70.7057 140.278C70.3435 140.569 70.0754 140.951 69.9014 141.423C69.7274 141.895 69.6404 142.405 69.6404 142.952C69.6404 143.499 69.7274 144.006 69.9014 144.475C70.0754 144.944 70.3435 145.322 70.7057 145.61C71.0679 145.897 71.5296 146.041 72.0906 146.041ZM83.4272 136.091V147H82.1062V136.091H83.4272ZM87.1626 142.078V147H85.9055V138.818H87.1199V140.097H87.2265C87.4182 139.681 87.7094 139.347 88.1001 139.095C88.4907 138.839 88.9949 138.712 89.6128 138.712C90.1668 138.712 90.6515 138.825 91.067 139.053C91.4825 139.276 91.8057 139.617 92.0365 140.075C92.2673 140.53 92.3827 141.105 92.3827 141.801V147H91.1256V141.886C91.1256 141.244 90.9587 140.743 90.6249 140.384C90.2911 140.022 89.833 139.841 89.2506 139.841C88.8493 139.841 88.4907 139.928 88.1746 140.102C87.8621 140.276 87.6153 140.53 87.4342 140.864C87.2531 141.197 87.1626 141.602 87.1626 142.078ZM98.2381 138.818V139.884H93.998V138.818H98.2381ZM95.2338 136.858H96.4909V144.656C96.4909 145.011 96.5424 145.278 96.6454 145.455C96.752 145.629 96.8869 145.746 97.0502 145.807C97.2172 145.864 97.3929 145.892 97.5776 145.892C97.7161 145.892 97.8297 145.885 97.9185 145.871C98.0073 145.853 98.0783 145.839 98.1316 145.828L98.3873 146.957C98.302 146.989 98.1831 147.021 98.0304 147.053C97.8777 147.089 97.6841 147.107 97.4498 147.107C97.0946 147.107 96.7466 147.03 96.4057 146.877C96.0684 146.725 95.7878 146.492 95.5641 146.18C95.3439 145.867 95.2338 145.473 95.2338 144.997V136.858ZM103.472 147.17C102.683 147.17 102.003 146.996 101.431 146.648C100.863 146.297 100.425 145.807 100.116 145.178C99.8104 144.546 99.6577 143.811 99.6577 142.973C99.6577 142.135 99.8104 141.396 100.116 140.757C100.425 140.114 100.854 139.614 101.405 139.255C101.959 138.893 102.605 138.712 103.344 138.712C103.77 138.712 104.191 138.783 104.606 138.925C105.022 139.067 105.4 139.298 105.741 139.617C106.082 139.933 106.353 140.352 106.556 140.874C106.758 141.396 106.859 142.039 106.859 142.803V143.335H100.553V142.249H105.581C105.581 141.787 105.489 141.375 105.304 141.013C105.123 140.651 104.864 140.365 104.526 140.155C104.192 139.946 103.798 139.841 103.344 139.841C102.843 139.841 102.41 139.965 102.044 140.214C101.682 140.459 101.403 140.778 101.208 141.173C101.012 141.567 100.915 141.989 100.915 142.44V143.165C100.915 143.783 101.021 144.306 101.234 144.736C101.451 145.162 101.751 145.487 102.135 145.711C102.518 145.931 102.964 146.041 103.472 146.041C103.802 146.041 104.1 145.995 104.366 145.903C104.636 145.807 104.869 145.665 105.064 145.477C105.26 145.285 105.411 145.047 105.517 144.763L106.732 145.104C106.604 145.516 106.389 145.878 106.087 146.19C105.785 146.499 105.412 146.741 104.968 146.915C104.525 147.085 104.026 147.17 103.472 147.17ZM110.029 136.091V147H108.772V136.091H110.029ZM112.331 147V138.818H113.588V147H112.331ZM112.97 137.455C112.725 137.455 112.514 137.371 112.337 137.204C112.163 137.037 112.076 136.837 112.076 136.602C112.076 136.368 112.163 136.167 112.337 136C112.514 135.833 112.725 135.75 112.97 135.75C113.215 135.75 113.425 135.833 113.599 136C113.777 136.167 113.865 136.368 113.865 136.602C113.865 136.837 113.777 137.037 113.599 137.204C113.425 137.371 113.215 137.455 112.97 137.455ZM119.193 150.239C118.586 150.239 118.064 150.161 117.627 150.004C117.191 149.852 116.827 149.649 116.535 149.397C116.248 149.148 116.019 148.882 115.848 148.598L116.85 147.895C116.963 148.044 117.107 148.214 117.281 148.406C117.455 148.602 117.693 148.77 117.995 148.912C118.3 149.058 118.7 149.131 119.193 149.131C119.854 149.131 120.399 148.971 120.829 148.651C121.258 148.332 121.473 147.831 121.473 147.149V145.487H121.367C121.274 145.636 121.143 145.821 120.972 146.041C120.806 146.258 120.564 146.451 120.248 146.622C119.936 146.789 119.513 146.872 118.98 146.872C118.32 146.872 117.727 146.716 117.201 146.403C116.679 146.091 116.265 145.636 115.96 145.04C115.658 144.443 115.507 143.719 115.507 142.866C115.507 142.028 115.655 141.299 115.949 140.677C116.244 140.052 116.654 139.569 117.18 139.228C117.705 138.884 118.313 138.712 119.002 138.712C119.534 138.712 119.957 138.8 120.269 138.978C120.585 139.152 120.827 139.351 120.994 139.575C121.164 139.795 121.296 139.976 121.388 140.118H121.516V138.818H122.73V147.234C122.73 147.938 122.57 148.509 122.251 148.95C121.935 149.393 121.509 149.718 120.972 149.924C120.44 150.134 119.847 150.239 119.193 150.239ZM119.151 145.743C119.655 145.743 120.081 145.627 120.429 145.397C120.777 145.166 121.042 144.834 121.223 144.401C121.404 143.967 121.494 143.449 121.494 142.845C121.494 142.256 121.406 141.735 121.228 141.284C121.051 140.833 120.788 140.48 120.44 140.224C120.092 139.969 119.662 139.841 119.151 139.841C118.618 139.841 118.174 139.976 117.819 140.246C117.468 140.516 117.203 140.878 117.025 141.332C116.851 141.787 116.764 142.291 116.764 142.845C116.764 143.413 116.853 143.916 117.031 144.353C117.212 144.786 117.478 145.127 117.83 145.375C118.185 145.62 118.625 145.743 119.151 145.743ZM128.462 147.17C127.673 147.17 126.993 146.996 126.422 146.648C125.854 146.297 125.415 145.807 125.106 145.178C124.801 144.546 124.648 143.811 124.648 142.973C124.648 142.135 124.801 141.396 125.106 140.757C125.415 140.114 125.845 139.614 126.395 139.255C126.949 138.893 127.595 138.712 128.334 138.712C128.76 138.712 129.181 138.783 129.596 138.925C130.012 139.067 130.39 139.298 130.731 139.617C131.072 139.933 131.344 140.352 131.546 140.874C131.748 141.396 131.85 142.039 131.85 142.803V143.335H125.543V142.249H130.571C130.571 141.787 130.479 141.375 130.294 141.013C130.113 140.651 129.854 140.365 129.517 140.155C129.183 139.946 128.789 139.841 128.334 139.841C127.833 139.841 127.4 139.965 127.034 140.214C126.672 140.459 126.393 140.778 126.198 141.173C126.003 141.567 125.905 141.989 125.905 142.44V143.165C125.905 143.783 126.012 144.306 126.225 144.736C126.441 145.162 126.741 145.487 127.125 145.711C127.508 145.931 127.954 146.041 128.462 146.041C128.792 146.041 129.09 145.995 129.357 145.903C129.627 145.807 129.859 145.665 130.055 145.477C130.25 145.285 130.401 145.047 130.507 144.763L131.722 145.104C131.594 145.516 131.379 145.878 131.077 146.19C130.775 146.499 130.403 146.741 129.959 146.915C129.515 147.085 129.016 147.17 128.462 147.17ZM135.019 142.078V147H133.762V138.818H134.976V140.097H135.083C135.275 139.681 135.566 139.347 135.956 139.095C136.347 138.839 136.851 138.712 137.469 138.712C138.023 138.712 138.508 138.825 138.923 139.053C139.339 139.276 139.662 139.617 139.893 140.075C140.124 140.53 140.239 141.105 140.239 141.801V147H138.982V141.886C138.982 141.244 138.815 140.743 138.481 140.384C138.148 140.022 137.689 139.841 137.107 139.841C136.706 139.841 136.347 139.928 136.031 140.102C135.719 140.276 135.472 140.53 135.291 140.864C135.11 141.197 135.019 141.602 135.019 142.078ZM146.095 138.818V139.884H141.854V138.818H146.095ZM143.09 136.858H144.347V144.656C144.347 145.011 144.399 145.278 144.502 145.455C144.608 145.629 144.743 145.746 144.907 145.807C145.074 145.864 145.249 145.892 145.434 145.892C145.573 145.892 145.686 145.885 145.775 145.871C145.864 145.853 145.935 145.839 145.988 145.828L146.244 146.957C146.158 146.989 146.04 147.021 145.887 147.053C145.734 147.089 145.541 147.107 145.306 147.107C144.951 147.107 144.603 147.03 144.262 146.877C143.925 146.725 143.644 146.492 143.421 146.18C143.2 145.867 143.09 145.473 143.09 144.997V136.858ZM151.328 147.17C150.54 147.17 149.86 146.996 149.288 146.648C148.72 146.297 148.281 145.807 147.972 145.178C147.667 144.546 147.514 143.811 147.514 142.973C147.514 142.135 147.667 141.396 147.972 140.757C148.281 140.114 148.711 139.614 149.261 139.255C149.815 138.893 150.462 138.712 151.2 138.712C151.626 138.712 152.047 138.783 152.463 138.925C152.878 139.067 153.256 139.298 153.597 139.617C153.938 139.933 154.21 140.352 154.412 140.874C154.615 141.396 154.716 142.039 154.716 142.803V143.335H148.409V142.249H153.437C153.437 141.787 153.345 141.375 153.16 141.013C152.979 140.651 152.72 140.365 152.383 140.155C152.049 139.946 151.655 139.841 151.2 139.841C150.699 139.841 150.266 139.965 149.9 140.214C149.538 140.459 149.259 140.778 149.064 141.173C148.869 141.567 148.771 141.989 148.771 142.44V143.165C148.771 143.783 148.878 144.306 149.091 144.736C149.307 145.162 149.608 145.487 149.991 145.711C150.375 145.931 150.82 146.041 151.328 146.041C151.658 146.041 151.957 145.995 152.223 145.903C152.493 145.807 152.725 145.665 152.921 145.477C153.116 145.285 153.267 145.047 153.373 144.763L154.588 145.104C154.46 145.516 154.245 145.878 153.943 146.19C153.642 146.499 153.269 146.741 152.825 146.915C152.381 147.085 151.882 147.17 151.328 147.17Z" fill="#D9D9D9"/>
</svg>
